<?xml version="1.0" encoding="UTF-8"?><svg id="Calque_2" xmlns="http://www.w3.org/2000/svg" width="296.13" height="117.26" viewBox="0 0 296.13 117.26"><defs><style>.cls-1{fill:#fff;}</style></defs><g id="Calque_1-2"><g><path class="cls-1" d="M63.6,44.64v.96h-23.82v-.96h6L41.04,7.86l-12.66,38.04h-3.3L10.02,7.8l-1.62,36.84h6.18v.96H0v-.96H3.84L9.12,5.7v-.06L3.72,2.4H22.08l10.5,27.54L39.24,2.4h20.28l-5.4,3.24,4.92,39h4.56Z"/><path class="cls-1" d="M65.58,44.64h3V22.74l-3.42-2.94,15.42-5.4v30.24h3v.96h-18v-.96Zm2.34-37.98c0-3.96,2.4-6.66,6.66-6.66s6.66,2.7,6.66,6.66-2.4,6.72-6.66,6.72-6.66-2.7-6.66-6.72Z"/><path class="cls-1" d="M124.68,44.64v.96h-14.94l-8.94-13.98v13.02h1.8v.96h-16.8v-.96h3V8.94l-3.42-2.94L100.8,.6V30.66l4.56-3.3c2.94-2.16,4.38-3.6,4.38-6.3,0-1.56-.66-3.3-2.58-4.26v-.3h12c.36,.48,.48,.9,.48,1.5,0,2.4-2.82,4.14-6.78,5.88l-3.66,1.62,13.02,19.14h2.46Z"/><path class="cls-1" d="M162,44.64v.96h-17.4v-.96h2.4V26.58c0-4.68-1.14-6.24-3.6-6.24-1.2,0-2.4,.36-3.6,.9v23.4h2.4v.96h-17.4v-.96h3V8.94l-3.42-2.94,15.42-5.4V20.4c3.9-3.36,7.38-5.7,11.46-5.7,5.1,0,7.74,3.18,7.74,9.3v20.64h3Z"/><path class="cls-1" d="M194.82,44.64v.96h-15v-3.42c-2.82,2.4-6,4.02-9.3,4.02-3.9,0-6.54-2.22-6.54-6,0-5.52,5.88-9.18,15.84-10.26,0-6.6-2.64-9.9-7.2-9.9-2.7,0-4.56,.72-6.6,2.28l-.3-.3c4.08-4.56,8.52-7.02,14.52-7.02,7.56,0,11.58,4.32,11.58,13.02v16.62h3Zm-15-3.3v-10.62c-3.6,1.02-4.98,3.3-4.98,6.48,0,2.82,1.2,4.32,3.6,4.32,.36,0,.84-.06,1.38-.18Z"/><path class="cls-1" d="M224.94,40.2c-2.52,3.84-6.54,6-12.12,6-8.46,0-15.42-5.88-15.42-15.18,0-8.76,5.88-16.02,15.48-16.02,5.64,0,9.54,3.3,9.54,7.68,0,4.98-3.84,9.36-11.04,12.06,3.42,3.36,7.74,5.58,11.76,5.58,.6,0,1.2-.06,1.74-.18l.06,.06Zm-20.1-19.56c0,4.98,2.58,10.02,6.18,13.74,1.68-2.16,2.34-4.56,2.34-7.62,0-5.22-3.48-9.66-6.06-9.66-1.56,0-2.46,1.32-2.46,3.54Z"/><path class="cls-1" d="M226.68,44.64h3V8.94l-3.42-2.94,15.42-5.4V44.64h3v.96h-18v-.96Z"/><path class="cls-1" d="M166,89.96c0,7.08-7.44,11.64-18.36,11.64h-24.06v-.96h4.8V61.64l-5.34-3.24h21.66c11.82,0,18.84,3.24,18.84,9.9,0,5.1-3.84,8.46-13.26,10.14,9.42,.6,15.72,4.74,15.72,11.52Zm-24.42-30.6v18.72h1.08c4.86,0,7.08-3.24,7.08-9.36,0-5.16-1.62-9.36-7.2-9.36h-.96Zm10.62,30.78c0-7.44-3.9-11.1-8.94-11.1h-1.68v21.6h1.26c6.66,0,9.36-3.48,9.36-10.5Z"/><path class="cls-1" d="M199.84,100.64v.96h-15v-3.42c-2.82,2.4-6,4.02-9.3,4.02-3.9,0-6.54-2.22-6.54-6,0-5.52,5.88-9.18,15.84-10.26,0-6.6-2.64-9.9-7.2-9.9-2.7,0-4.56,.72-6.6,2.28l-.3-.3c4.08-4.56,8.52-7.02,14.52-7.02,7.56,0,11.58,4.32,11.58,13.02v16.62h3Zm-15-3.3v-10.62c-3.6,1.02-4.98,3.3-4.98,6.48,0,2.82,1.2,4.32,3.6,4.32,.36,0,.84-.06,1.38-.18Z"/><path class="cls-1" d="M202.06,100.64h3v-21.9l-3.42-2.94,15.42-5.4v30.24h3v.96h-18v-.96Zm2.34-37.98c0-3.96,2.4-6.66,6.66-6.66s6.66,2.7,6.66,6.66-2.4,6.72-6.66,6.72-6.66-2.7-6.66-6.72Z"/><path class="cls-1" d="M222.28,100.64h3v-35.7l-3.42-2.94,15.42-5.4v44.04h3v.96h-18v-.96Z"/><path class="cls-1" d="M242.5,100.64h3v-35.7l-3.42-2.94,15.42-5.4v44.04h3v.96h-18v-.96Z"/><path class="cls-1" d="M296.13,72.2l-4.02,2.94-13.02,26.46-7.14,15.66-11.4-7.98,17.46-7.98-14.16-26.16-4.08-2.94h21.06l-4.02,2.94,6.66,15.78,5.64-15.78-4.62-2.94h11.64Z"/></g></g></svg>